<?xml version="1.0" encoding="UTF-8"?>
<!DOCTYPE svg PUBLIC "-//W3C//DTD SVG 1.1//EN" "http://www.w3.org/Graphics/SVG/1.1/DTD/svg11.dtd">
<svg xmlns="http://www.w3.org/2000/svg" version="1.1" width="545px" height="131px" style="shape-rendering:geometricPrecision; text-rendering:geometricPrecision; image-rendering:optimizeQuality; fill-rule:evenodd; clip-rule:evenodd" xmlns:xlink="http://www.w3.org/1999/xlink">
<g><path style="opacity:0.988" fill="#ebeced" d="M 29.5,-0.5 C 51.8333,-0.5 74.1667,-0.5 96.5,-0.5C 111.376,3.20853 120.876,12.5419 125,27.5C 125.667,50.8333 125.667,74.1667 125,97.5C 121.167,112 112,121.167 97.5,125C 74.1667,125.667 50.8333,125.667 27.5,125C 12.0906,120.761 2.75722,110.928 -0.5,95.5C -0.5,73.5 -0.5,51.5 -0.5,29.5C 3.83333,13.8333 13.8333,3.83333 29.5,-0.5 Z"/></g>
<g><path style="opacity:1" fill="#0b56fe" d="M 88.5,18.5 C 90.5,18.5 92.5,18.5 94.5,18.5C 92.3915,33.4844 90.3915,48.4844 88.5,63.5C 69.7372,65.5777 51.0706,67.2444 32.5,68.5C 38.6391,54.0835 44.9724,39.7502 51.5,25.5C 63.9023,22.8247 76.2356,20.4914 88.5,18.5 Z"/></g>
<g><path style="opacity:0.832" fill="#000000" d="M 495.5,24.5 C 497.5,24.5 499.5,24.5 501.5,24.5C 493.307,49.2437 484.807,73.9104 476,98.5C 474.246,100.25 472.079,100.917 469.5,100.5C 477.965,75.1038 486.632,49.7705 495.5,24.5 Z"/></g>
<g><path style="opacity:0.832" fill="#000000" d="M 300.5,33.5 C 307.158,32.3445 309.158,34.8445 306.5,41C 299.54,42.2161 297.54,39.7161 300.5,33.5 Z"/></g>
<g><path style="opacity:0.888" fill="#000000" d="M 409.5,33.5 C 411.5,33.5 413.5,33.5 415.5,33.5C 415.5,53.1667 415.5,72.8333 415.5,92.5C 413.5,92.5 411.5,92.5 409.5,92.5C 409.663,90.1432 409.497,87.8098 409,85.5C 402.894,92.0917 395.394,94.2583 386.5,92C 372.404,84.9481 368.571,74.1148 375,59.5C 384.543,49.2749 395.377,47.7749 407.5,55C 408.126,55.7504 408.626,56.5838 409,57.5C 409.5,49.5069 409.666,41.5069 409.5,33.5 Z M 392.5,55.5 C 403.796,56.2924 409.296,62.2924 409,73.5C 406.41,84.3866 399.576,88.5532 388.5,86C 378.989,80.4663 376.489,72.633 381,62.5C 384.225,58.9793 388.058,56.646 392.5,55.5 Z"/></g>
<g><path style="opacity:0.874" fill="#000000" d="M 218.5,36.5 C 221.119,36.2317 223.619,36.565 226,37.5C 234.264,55.458 242.43,73.458 250.5,91.5C 248.167,92.8333 245.833,92.8333 243.5,91.5C 241.226,87.2864 239.226,82.9531 237.5,78.5C 227.167,77.1667 216.833,77.1667 206.5,78.5C 204.774,82.9531 202.774,87.2864 200.5,91.5C 198.167,92.8333 195.833,92.8333 193.5,91.5C 201.646,73.0531 209.979,54.7197 218.5,36.5 Z M 221.5,43.5 C 225.785,52.7427 230.118,62.076 234.5,71.5C 226.167,72.8333 217.833,72.8333 209.5,71.5C 214.069,62.3666 218.069,53.0333 221.5,43.5 Z"/></g>
<g><path style="opacity:1" fill="#dee2ee" d="M 68.5,40.5 C 69.1239,40.9169 69.4573,41.5836 69.5,42.5C 67.5974,48.0126 66.5974,53.6793 66.5,59.5C 63.8333,59.5 61.1667,59.5 58.5,59.5C 60.3184,53.8548 62.1517,48.1882 64,42.5C 65.6225,41.9011 67.1225,41.2344 68.5,40.5 Z"/></g>
<g><path style="opacity:0.824" fill="#000000" d="M 185.5,47.5 C 186.5,47.5 187.5,47.5 188.5,47.5C 188.5,49.5 188.5,51.5 188.5,53.5C 179.089,56.702 169.755,60.202 160.5,64C 169.386,67.9431 178.386,71.6098 187.5,75C 188.591,77.0639 188.758,79.2305 188,81.5C 176.906,76.7042 165.739,72.0376 154.5,67.5C 153.167,65.1667 153.167,62.8333 154.5,60.5C 165.038,56.3903 175.371,52.057 185.5,47.5 Z"/></g>
<g><path style="opacity:0.825" fill="#000000" d="M 504.5,47.5 C 516.089,52.03 527.756,56.3633 539.5,60.5C 539.808,62.924 539.474,65.2573 538.5,67.5C 527.261,72.0376 516.094,76.7042 505,81.5C 504.242,79.2305 504.409,77.0639 505.5,75C 514.5,71.3333 523.5,67.6667 532.5,64C 523.461,60.598 514.461,57.098 505.5,53.5C 504.534,51.604 504.201,49.604 504.5,47.5 Z"/></g>
<g><path style="opacity:0.842" fill="#000000" d="M 249.5,50.5 C 251.924,50.1924 254.257,50.5258 256.5,51.5C 261.333,62.5 266.167,73.5 271,84.5C 276.257,73.6496 281.257,62.6496 286,51.5C 288.401,50.3977 290.901,50.231 293.5,51C 285.477,68.0651 277.643,85.2318 270,102.5C 265.116,108.22 258.95,110.053 251.5,108C 246.743,105.934 246.41,103.434 250.5,100.5C 259.4,105.221 265.066,102.554 267.5,92.5C 261.491,78.4836 255.491,64.4836 249.5,50.5 Z"/></g>
<g><path style="opacity:0.956" fill="#000000" d="M 300.5,50.5 C 302.5,50.5 304.5,50.5 306.5,50.5C 306.5,64.5 306.5,78.5 306.5,92.5C 304.5,92.5 302.5,92.5 300.5,92.5C 300.5,78.5 300.5,64.5 300.5,50.5 Z"/></g>
<g><path style="opacity:0.916" fill="#000000" d="M 322.5,50.5 C 324.5,50.5 326.5,50.5 328.5,50.5C 328.338,52.5273 328.505,54.5273 329,56.5C 332.943,51.9612 337.943,49.9612 344,50.5C 352.84,50.081 358.507,54.081 361,62.5C 361.5,72.4944 361.666,82.4944 361.5,92.5C 359.5,92.5 357.5,92.5 355.5,92.5C 355.895,82.4343 355.395,72.4343 354,62.5C 351.792,57.8949 348.125,55.8949 343,56.5C 337.215,56.2244 332.882,58.5578 330,63.5C 328.58,73.0862 328.08,82.7529 328.5,92.5C 326.5,92.5 324.5,92.5 322.5,92.5C 322.5,78.5 322.5,64.5 322.5,50.5 Z"/></g>
<g><path style="opacity:0.858" fill="#000000" d="M 440.5,50.5 C 457.833,48.5049 466.833,56.1715 467.5,73.5C 455.814,73.1678 444.148,73.5011 432.5,74.5C 436.26,84.8822 443.593,88.7156 454.5,86C 457.102,85.1166 459.269,83.6166 461,81.5C 465.286,83.8563 465.453,86.3563 461.5,89C 452.527,93.6227 443.527,93.6227 434.5,89C 425.626,80.0024 424.126,69.8357 430,58.5C 432.855,54.7893 436.355,52.1226 440.5,50.5 Z M 444.5,55.5 C 453.486,55.4964 458.819,59.8298 460.5,68.5C 451.161,68.6665 441.827,68.4998 432.5,68C 434.015,61.3202 438.015,57.1535 444.5,55.5 Z"/></g>
<g><path style="opacity:1" fill="#2460fd" d="M 83.5,66.5 C 85.8333,66.5 88.1667,66.5 90.5,66.5C 90.5,67.8333 90.5,69.1667 90.5,70.5C 82.4723,70.831 74.4723,70.4977 66.5,69.5C 72.2927,68.4208 77.9593,67.4208 83.5,66.5 Z"/></g>
<g><path style="opacity:1" fill="#9fb8f3" d="M 74.5,73.5 C 78.6344,72.5151 82.9677,72.1818 87.5,72.5C 87.7678,74.099 87.4345,75.4324 86.5,76.5C 86.5,75.5 86.5,74.5 86.5,73.5C 82.5,73.5 78.5,73.5 74.5,73.5 Z"/></g>
<g><path style="opacity:1" fill="#0d57fe" d="M 74.5,73.5 C 78.5,73.5 82.5,73.5 86.5,73.5C 86.5,74.5 86.5,75.5 86.5,76.5C 85.7565,85.4577 84.4232,94.2911 82.5,103C 74.2796,103.793 66.113,104.96 58,106.5C 57.1667,106.167 56.3333,105.833 55.5,105.5C 57.3766,97.8724 59.0433,90.2057 60.5,82.5C 56.3553,82.3301 52.3553,82.9967 48.5,84.5C 47.0271,88.2508 45.3604,91.9175 43.5,95.5C 35.6639,97.0876 27.8306,98.4209 20,99.5C 22.268,91.274 25.4346,83.274 29.5,75.5C 44.4501,73.8349 59.4501,73.1683 74.5,73.5 Z"/></g>
</svg>
